<?xml version="1.0" standalone="no"?>
<!-- Generator: Adobe Fireworks 10, Export SVG Extension by Aaron Beall (http://fireworks.abeall.com) . Version: 0.6.1  -->
<!DOCTYPE svg PUBLIC "-//W3C//DTD SVG 1.1//EN" "http://www.w3.org/Graphics/SVG/1.1/DTD/svg11.dtd">
<svg id="Untitled-Page%201" viewBox="0 0 134 120" style="background-color:#ffffff00" version="1.1"
	xmlns="http://www.w3.org/2000/svg" xmlns:xlink="http://www.w3.org/1999/xlink" xml:space="preserve"
	x="0px" y="0px" width="134px" height="120px"
>
	<path d="M 51.8417 95.3848 L 21.2217 95.3848 C 19.5474 95.3848 18.1899 96.7622 18.1899 98.4614 C 18.1899 100.1606 19.5474 101.5386 21.2217 101.5386 L 51.8417 101.5386 C 53.5159 101.5386 54.8734 100.1606 54.8734 98.4614 C 54.8734 96.7622 53.5159 95.3848 51.8417 95.3848 L 51.8417 95.3848 ZM 51.8417 95.3848 L 51.8417 95.3848 Z" fill="#ffff00"/>
	<path d="M 97.6201 95.3848 L 67 95.3848 C 65.3258 95.3848 63.9684 96.7622 63.9684 98.4614 C 63.9684 100.1606 65.3258 101.5386 67 101.5386 L 97.6201 101.5386 C 99.2943 101.5386 100.6517 100.1606 100.6517 98.4614 C 100.6517 96.7622 99.2943 95.3848 97.6201 95.3848 L 97.6201 95.3848 ZM 97.6201 95.3848 L 97.6201 95.3848 Z" fill="#ffff00"/>
	<path d="M 97.6201 18.4614 L 21.2217 18.4614 C 19.5474 18.4614 18.1899 19.8394 18.1899 21.5386 C 18.1899 23.2378 19.5474 24.6152 21.2217 24.6152 L 97.6201 24.6152 C 99.2943 24.6152 100.6517 23.2378 100.6517 21.5386 C 100.6517 19.8394 99.2943 18.4614 97.6201 18.4614 L 97.6201 18.4614 ZM 97.6201 18.4614 L 97.6201 18.4614 Z" fill="#ffff00"/>
	<path d="M 97.6201 33.8464 L 67 33.8464 C 65.3258 33.8464 63.9684 35.2239 63.9684 36.9231 C 63.9684 38.6223 65.3258 40.0002 67 40.0002 L 97.6201 40.0002 C 99.2943 40.0002 100.6517 38.6223 100.6517 36.9231 C 100.6517 35.2239 99.2943 33.8464 97.6201 33.8464 L 97.6201 33.8464 ZM 97.6201 33.8464 L 97.6201 33.8464 Z" fill="#ffff00"/>
	<path d="M 97.6201 49.2307 L 67 49.2307 C 65.3258 49.2307 63.9684 50.6086 63.9684 52.3079 C 63.9684 54.0071 65.3258 55.3845 67 55.3845 L 97.6201 55.3845 C 99.2943 55.3845 100.6517 54.0071 100.6517 52.3079 C 100.6517 50.6086 99.2943 49.2307 97.6201 49.2307 L 97.6201 49.2307 ZM 97.6201 49.2307 L 97.6201 49.2307 Z" fill="#ffff00"/>
	<path d="M 97.6201 64.6155 L 67 64.6155 C 65.3258 64.6155 63.9684 65.9929 63.9684 67.6921 C 63.9684 69.3914 65.3258 70.7693 67 70.7693 L 97.6201 70.7693 C 99.2943 70.7693 100.6517 69.3914 100.6517 67.6921 C 100.6517 65.9929 99.2943 64.6155 97.6201 64.6155 L 97.6201 64.6155 ZM 97.6201 64.6155 L 97.6201 64.6155 Z" fill="#ffff00"/>
	<path d="M 97.6201 79.9998 L 67 79.9998 C 65.3258 79.9998 63.9684 81.3777 63.9684 83.0769 C 63.9684 84.7761 65.3258 86.1536 67 86.1536 L 97.6201 86.1536 C 99.2943 86.1536 100.6517 84.7761 100.6517 83.0769 C 100.6517 81.3777 99.2943 79.9998 97.6201 79.9998 L 97.6201 79.9998 ZM 97.6201 79.9998 L 97.6201 79.9998 Z" fill="#ffff00"/>
	<path d="M 51.8417 79.9998 L 21.2217 79.9998 C 19.5474 79.9998 18.1899 81.3777 18.1899 83.0769 C 18.1899 84.7761 19.5474 86.1536 21.2217 86.1536 L 51.8417 86.1536 C 53.5159 86.1536 54.8734 84.7761 54.8734 83.0769 C 54.8734 81.3777 53.5159 79.9998 51.8417 79.9998 L 51.8417 79.9998 ZM 51.8417 79.9998 L 51.8417 79.9998 Z" fill="#ffff00"/>
	<path d="M 51.8417 33.8464 L 21.2217 33.8464 C 19.5474 33.8464 18.1899 35.2239 18.1899 36.9231 L 18.1899 68.0005 C 18.1899 69.6997 19.5474 71.0771 21.2217 71.0771 L 51.8417 71.0771 C 53.5159 71.0771 54.8734 69.6997 54.8734 68.0005 L 54.8734 36.9231 C 54.8734 35.2239 53.5159 33.8464 51.8417 33.8464 L 51.8417 33.8464 ZM 48.8101 64.9233 L 24.2533 64.9233 L 24.2533 40.0002 L 48.8101 40.0002 L 48.8101 64.9233 ZM 48.8101 64.9233 L 48.8101 64.9233 Z" fill="#ffff00"/>
	<path d="M 127.9366 15.3848 L 118.8417 15.3848 L 118.8417 6.1538 C 118.8417 2.7598 116.1208 0 112.7783 0 L 6.0634 0 C 2.7194 0 0 2.7598 0 6.1538 L 0 104.6152 C 0 113.0979 6.8003 120 15.1583 120 L 118.8417 120 C 127.1995 120 134 113.0979 134 104.6152 L 134 21.5386 C 134 18.1448 131.2792 15.3848 127.9366 15.3848 L 127.9366 15.3848 ZM 127.9366 104.6152 C 127.9366 109.7053 123.8555 113.8462 118.8417 113.8462 L 15.1583 113.8462 C 10.1432 113.8462 6.0634 109.7053 6.0634 104.6152 L 6.0634 6.1538 L 112.7783 6.1538 L 112.7783 100.0002 C 112.7783 104.2412 116.1771 107.6924 120.3575 107.6924 C 122.0317 107.6924 123.3892 106.3145 123.3892 104.6152 C 123.3892 102.916 122.0317 101.5386 120.3575 101.5386 C 119.5211 101.5386 118.8417 100.8489 118.8417 100.0002 L 118.8417 21.5386 L 127.9366 21.5386 L 127.9366 104.6152 ZM 127.9366 104.6152 L 127.9366 104.6152 Z" fill="#ffff00"/>
</svg>