<?xml version="1.0" standalone="no"?>
<!-- Generator: Adobe Fireworks 10, Export SVG Extension by Aaron Beall (http://fireworks.abeall.com) . Version: 0.6.1  -->
<!DOCTYPE svg PUBLIC "-//W3C//DTD SVG 1.1//EN" "http://www.w3.org/Graphics/SVG/1.1/DTD/svg11.dtd">
<svg id="Untitled-Page%201" viewBox="0 0 19 25" style="background-color:#ffffff00" version="1.1"
	xmlns="http://www.w3.org/2000/svg" xmlns:xlink="http://www.w3.org/1999/xlink" xml:space="preserve"
	x="0px" y="0px" width="19px" height="25px"
>
	<path id="Ellipse" d="M 14.25 22.0238 C 14.25 20.7088 15.3132 19.6429 16.625 19.6429 C 17.9368 19.6429 19 20.7088 19 22.0238 C 19 23.3388 17.9368 24.4048 16.625 24.4048 C 15.3132 24.4048 14.25 23.3388 14.25 22.0238 Z" fill="#0a619a"/>
	<path d="M 5.2219 5.6559 L 5.7213 0.8654 C 6.3514 0.2871 7.0765 0.0659 7.0765 0.0659 C 10.5273 -0.6574 12.469 4.811 12.469 4.811 C 14.1256 9.4768 17.2188 10.6307 17.2188 10.6307 L 17.2059 13.2209 C 17.1942 15.4951 15.5525 15.5457 15.5525 15.5457 L 5.608 15.4926 C 4.218 15.4656 4.2845 17.5424 4.2845 17.5424 C 4.274 19.5989 5.4135 19.605 5.4135 19.605 L 9.2174 19.6252 L 9.2 23.0857 C 8.202 25.6117 4.6625 24.9107 4.6625 24.9107 C -0.3979 23.1929 0.0077 17.4996 0.0077 17.4996 C 0.0376 11.597 5.2272 10.6457 5.2272 10.6457 C 6.0392 10.4425 11.3107 10.53 11.3107 10.53 C 9.2026 9.2133 8.8922 7.6101 8.8922 7.6101 C 8.4392 5.5608 7.5725 5.1111 7.5725 5.1111 C 5.9839 4.1711 5.2219 5.6559 5.2219 5.6559 L 5.2219 5.6559 Z" fill="#f8f8f8"/>
</svg>