<?xml version="1.0" standalone="no"?>
<!-- Generator: Adobe Fireworks 10, Export SVG Extension by Aaron Beall (http://fireworks.abeall.com) . Version: 0.6.1  -->
<!DOCTYPE svg PUBLIC "-//W3C//DTD SVG 1.1//EN" "http://www.w3.org/Graphics/SVG/1.1/DTD/svg11.dtd">
<svg id="Untitled-Page%201" viewBox="0 0 62 50" style="background-color:#ffffff00" version="1.1"
	xmlns="http://www.w3.org/2000/svg" xmlns:xlink="http://www.w3.org/1999/xlink" xml:space="preserve"
	x="0px" y="0px" width="62px" height="50px"
>
	<path d="M 58.49 16.6733 L 55 16.6733 L 55 10.5332 C 55 9.0576 53.7739 7.8574 52.2681 7.8574 L 27.5149 7.8574 L 22.5149 1 L 3.7319 1 C 2.2258 1 1 2.2012 1 3.6763 L 1 46.4717 L 1.0061 46.4717 C 1.001 47.0234 1.176 47.563 1.5281 48.0146 C 2.0181 48.6416 2.76 49 3.5649 49 L 48.324 49 C 49.48 49 50.498 48.2368 50.7742 47.2236 L 61 19.7578 L 61 19.585 C 61 17.8975 59.9441 16.6733 58.49 16.6733 ZM 3.0002 3.6763 C 3.0002 3.2803 3.3289 2.959 3.7319 2.959 L 21.4849 2.959 L 26.4851 9.8164 L 52.2668 9.8164 C 52.6711 9.8164 52.9993 10.1377 52.9993 10.5332 L 52.9993 16.6733 L 13.731 16.6733 C 13.5869 16.6733 13.4441 16.6851 13.3052 16.7085 C 12.332 16.8682 11.5229 17.5635 11.282 18.4482 L 3.0002 40.5747 L 3.0002 3.6763 ZM 48.8689 46.6318 C 48.803 46.8721 48.5781 47.041 48.324 47.041 L 3.5649 47.041 C 3.322 47.041 3.1799 46.9043 3.1172 46.8232 C 3.054 46.7432 2.957 46.5723 2.9941 46.4238 L 13.1848 19.041 C 13.251 18.8018 13.4758 18.6328 13.7302 18.6328 L 55 18.6328 L 58.49 18.6328 C 58.8701 18.6328 58.967 19.168 58.9922 19.4351 L 48.8689 46.6318 Z" stroke="#ffff00" stroke-width="1" fill="#ffff00"/>
</svg>