<?xml version="1.0" standalone="no"?>
<!-- Generator: Adobe Fireworks 10, Export SVG Extension by Aaron Beall (http://fireworks.abeall.com) . Version: 0.6.1  -->
<!DOCTYPE svg PUBLIC "-//W3C//DTD SVG 1.1//EN" "http://www.w3.org/Graphics/SVG/1.1/DTD/svg11.dtd">
<svg id="Untitled-Page%201" viewBox="0 0 49 43" style="background-color:#ffffff00" version="1.1"
	xmlns="http://www.w3.org/2000/svg" xmlns:xlink="http://www.w3.org/1999/xlink" xml:space="preserve"
	x="0px" y="0px" width="49px" height="43px"
>
	<path d="M 18.7348 23.3477 C 20.8195 23.2383 23.8711 22.6538 26.2582 21.3267 C 27.9897 18.6787 29.134 16.5176 30.2607 14.1611 C 28.7121 14.2754 26.9279 14.145 25.3354 13.7007 C 27.2584 13.3726 29.6701 12.6885 31.4947 11.5215 C 33.7553 8.3257 35.4287 3.1748 36 0.0034 C 30.8268 -0.082 25.9805 1.5981 22.7057 3.7017 C 21.6 4.9561 20.642 7.9819 20.4152 9.584 C 19.916 8.4272 19.5539 6.5742 19.9793 5.0283 C 17.3549 6.4019 15.0592 7.9717 12.4611 10.1523 C 11.1656 12.8896 10.96 16.0464 11.0795 17.8145 C 10.3746 16.8232 9.4324 14.894 9.5643 12.7813 C 4.9025 17.2686 1.6857 23.144 4.7373 29.4873 C 8.1193 26.0088 12.0076 22.709 14.3736 21.1753 C 8.9086 27.3999 3.8145 35.5918 0 43 L 4.507 41.5933 C 6.4582 38.0469 8.2125 34.9937 9.7857 32.8047 C 15.5988 33.5625 20.758 28.9185 24.2367 24.2139 C 22.8516 24.5532 20.1938 24.1089 18.7348 23.3477 Z" fill="#333333"/>
	<path d="M 9 42 L 48 42 " stroke="#333333" stroke-width="1" fill="none"/>
</svg>