<?xml version="1.0" standalone="no"?>
<!-- Generator: Adobe Fireworks 10, Export SVG Extension by Aaron Beall (http://fireworks.abeall.com) . Version: 0.6.1  -->
<!DOCTYPE svg PUBLIC "-//W3C//DTD SVG 1.1//EN" "http://www.w3.org/Graphics/SVG/1.1/DTD/svg11.dtd">
<svg id="Untitled-Page%201" viewBox="0 0 37 30" style="background-color:#ffffff00" version="1.1"
	xmlns="http://www.w3.org/2000/svg" xmlns:xlink="http://www.w3.org/1999/xlink" xml:space="preserve"
	x="0px" y="0px" width="37px" height="30px"
>
	<path d="M 27.1241 5.7764 C 28.4403 6.3827 29.5073 7.4703 30.0105 8.8953 C 30.5164 10.3174 30.3674 11.8048 29.7192 13.0607 L 31.8741 14.0548 C 32.7977 12.2714 33.0146 10.1574 32.2981 8.1359 C 31.5804 6.109 30.0663 4.562 28.1969 3.6979 L 27.1241 5.7764 ZM 29.0013 2.1367 C 31.2872 3.1942 33.1366 5.088 34.0117 7.5646 C 34.8853 10.0369 34.6194 12.622 33.488 14.7999 L 35.6952 15.819 C 37.1082 13.0994 37.4431 9.8718 36.3563 6.7845 C 35.2651 3.6894 32.9573 1.3233 30.1035 0 L 29.0013 2.1367 ZM 12.0049 20.482 L 8.4386 11.0641 L 3.4418 12.795 C 0.7218 13.7379 -0.6743 16.6105 0.3212 19.2054 C 1.313 21.7965 4.313 23.1368 7.0243 22.2017 L 12.0049 20.482 ZM 20.6002 1.4845 L 27.6432 20.3934 C 21.7864 19.2226 17.3003 19.197 13.9854 19.7997 L 13.2721 17.9077 C 16.4424 17.2787 20.1875 17.2462 24.4435 17.8211 L 19.8347 5.4777 C 16.9164 8.5673 14.0547 10.7968 11.1442 12.28 L 10.4253 10.3764 C 13.3514 8.829 16.7439 6.1349 20.6002 1.4845 ZM 16.6378 26.7957 C 15.972 26.5759 15.3926 26.1735 14.9753 25.6378 L 12.4827 22.4481 L 6.4067 24.5443 L 10.3771 29.3893 C 10.8246 29.9306 11.5886 30.1385 12.271 29.9056 L 16.6752 28.3911 C 17.0272 28.2695 17.2642 27.951 17.2638 27.596 C 17.2631 27.2404 17.0289 26.9242 16.6736 26.8087 L 16.6378 26.7957 Z" fill="#333333"/>
</svg>