<?xml version="1.0" standalone="no"?>
<!-- Generator: Adobe Fireworks 10, Export SVG Extension by Aaron Beall (http://fireworks.abeall.com) . Version: 0.6.1  -->
<!DOCTYPE svg PUBLIC "-//W3C//DTD SVG 1.1//EN" "http://www.w3.org/Graphics/SVG/1.1/DTD/svg11.dtd">
<svg id="Untitled-Page%201" viewBox="0 0 36 36" style="background-color:#ffffff00" version="1.1"
	xmlns="http://www.w3.org/2000/svg" xmlns:xlink="http://www.w3.org/1999/xlink" xml:space="preserve"
	x="0px" y="0px" width="36px" height="36px"
>
	<path id="Ellipse" d="M 27.0001 31.7144 C 27.0001 29.8213 29.0148 28.2861 31.5 28.2861 C 33.9853 28.2861 36 29.8213 36 31.7144 C 36 33.6079 33.9853 35.1431 31.5 35.1431 C 29.0148 35.1431 27.0001 33.6079 27.0001 31.7144 Z" fill="#1a74b1"/>
	<path d="M 9.8942 8.1445 L 10.8403 1.2461 C 12.0341 0.4131 13.4081 0.0947 13.4081 0.0947 C 19.9467 -0.9463 23.6254 6.9277 23.6254 6.9277 C 26.7643 13.6465 32.625 15.3081 32.625 15.3081 L 32.6006 19.0381 C 32.5787 22.313 29.4681 22.3857 29.4681 22.3857 L 10.6257 22.3096 C 7.992 22.271 8.118 25.2612 8.118 25.2612 C 8.0982 28.2222 10.2567 28.2314 10.2567 28.2314 L 17.4645 28.2607 L 17.4315 33.2437 C 15.5408 36.8813 8.8341 35.8711 8.8341 35.8711 C -0.7539 33.3979 0.0146 25.1997 0.0146 25.1997 C 0.0713 16.7002 9.9042 15.3301 9.9042 15.3301 C 11.4429 15.0371 21.4307 15.1631 21.4307 15.1631 C 17.4363 13.2676 16.8485 10.959 16.8485 10.959 C 15.9901 8.0073 14.3478 7.3604 14.3478 7.3604 C 11.3378 6.0068 9.8942 8.1445 9.8942 8.1445 L 9.8942 8.1445 Z" fill="#1a74b1"/>
</svg>