<?xml version="1.0" standalone="no"?>
<!-- Generator: Adobe Fireworks 10, Export SVG Extension by Aaron Beall (http://fireworks.abeall.com) . Version: 0.6.1  -->
<!DOCTYPE svg PUBLIC "-//W3C//DTD SVG 1.1//EN" "http://www.w3.org/Graphics/SVG/1.1/DTD/svg11.dtd">
<svg id="Untitled-Page%201" viewBox="0 0 752 102" style="background-color:#ffffff00" version="1.1"
	xmlns="http://www.w3.org/2000/svg" xmlns:xlink="http://www.w3.org/1999/xlink" xml:space="preserve"
	x="0px" y="0px" width="752px" height="102px"
>
	<defs>
		<!-- Library -->
		<symbol id="Symbol1" overflow="visible">
			<g id="Layer%201">
				<image x="-124" y="-29" width="247" height="57" xlink:href="logo.svg.images/image1.png"/>
			</g>

		</symbol>
		<!-- End Library -->

	</defs>
	<path d="M 92.7446 86.1713 C 92.7446 89.7351 89.7787 92.625 86.12 92.625 C 82.4612 92.625 79.4955 89.7351 79.4955 86.1713 C 79.4955 82.6074 82.4612 79.7181 86.12 79.7181 C 89.7787 79.7181 92.7446 82.6074 92.7446 86.1713 ZM 57.9869 2.1074 L 57.9869 26.9445 C 59.8828 25.2891 62.0652 24.656 62.0652 24.656 C 72.4497 22.5854 78.2932 38.2396 78.2932 38.2396 C 83.278 51.5959 92.5867 54.8989 92.5867 54.8989 L 92.5481 62.3136 C 92.5127 68.824 87.5724 68.9688 87.5724 68.9688 L 57.6458 68.817 C 53.4631 68.7395 53.6631 74.6845 53.6631 74.6845 C 53.6318 80.5717 57.0602 80.5892 57.0602 80.5892 L 68.5079 80.6471 L 68.4551 90.5532 C 65.4525 97.7841 54.8003 95.7773 54.8003 95.7773 C 39.5719 90.86 40.7924 74.5623 40.7924 74.5623 C 40.8826 57.6653 56.4994 54.942 56.4994 54.942 C 58.9434 54.3602 74.8071 54.6107 74.8071 54.6107 C 68.463 50.8416 67.5291 46.252 67.5291 46.252 C 66.1656 40.3859 63.5575 39.0986 63.5575 39.0986 C 58.7771 36.4077 56.4838 40.6579 56.4838 40.6579 C 51.0792 72.0764 9.5881 62.7361 9.5881 62.7361 L 0 60.1879 L 0.1442 98.3719 L 98.6534 98.3719 L 98.6534 2.1074 L 57.9869 2.1074 Z" fill="#3784d0"/>
	<path d="M 0.1442 2.1639 L 44.0479 2.1639 L 44.0479 55.9423 L 0.1442 55.9423 L 0.1442 2.1639 Z" fill="#3784d0"/>
	<path d="M 0.1442 2.1639 L 0.1442 38.3932 C 0.1442 38.3932 2.441 52.8856 21.036 52.8856 C 21.036 52.8856 44.0479 55.9423 44.0479 26.5056 L 44.0479 2.1639 L 0.1442 2.1639 Z" fill="none"/>
	<path d="M 602.5679 29.5592 L 602.5679 21.2039 L 594.4111 21.2039 L 594.4111 29.5592 L 602.5679 29.5592 L 602.5679 29.5592 ZM 589.8606 29.5592 L 589.8606 21.2039 L 581.7039 21.2039 L 581.7039 29.5592 L 589.8606 29.5592 L 589.8606 29.5592 ZM 613.9917 83.5984 L 613.9917 75.5454 L 602.7599 75.5454 L 602.7599 38.4534 L 584.6797 38.4534 C 573.3553 38.4534 566.6686 44.7493 566.6686 61.1007 C 566.6686 78.068 576.9139 83.5984 584.6797 83.5984 L 613.9917 83.5984 L 613.9917 83.5984 ZM 594.5042 75.5454 C 589.0956 75.5454 584.9677 75.5454 584.9677 75.5454 C 577.7472 75.5454 574.9354 67.1186 574.9354 61.1007 C 574.9354 54.8806 576.9139 44.6524 584.9677 44.6524 C 584.9677 44.6524 587.0796 44.6524 594.5042 44.6524 L 594.5042 75.5454 L 594.5042 75.5454 Z" fill="#ffffff"/>
	<path d="M 645.0111 83.5984 L 645.0111 75.5454 L 643.5712 75.5454 C 636.7551 75.5454 632.5314 72.2469 632.5314 66.3279 C 632.5314 66.0374 632.5314 38.1913 632.5314 38.1913 L 624.2754 38.1913 L 624.2754 66.0374 C 624.2754 71.9553 618.9889 75.5454 612.4135 75.5454 L 610.9736 75.5454 L 610.9736 83.5984 L 612.4135 83.5984 C 619.2671 83.5984 625.7153 81.4644 628.7872 77.3889 C 631.9553 81.3665 637.0428 83.5016 643.5712 83.5984 L 645.0111 83.5984 L 645.0111 83.5984 ZM 632.6273 100.7131 L 632.6273 92.3579 L 624.4673 92.3579 L 624.4673 100.7131 L 632.6273 100.7131 L 632.6273 100.7131 ZM 617.5974 100.7131 L 617.5974 92.3579 L 609.3419 92.3579 L 609.3419 100.7131 L 617.5974 100.7131 L 617.5974 100.7131 Z" fill="#ffffff"/>
	<path d="M 662.3988 64.8024 C 662.3988 64.7055 662.3988 20.8502 662.3988 20.8502 L 654.1428 20.8502 L 654.1428 64.415 C 654.1428 71.691 650.2068 75.9602 642.5269 75.9602 L 642.5269 83.1837 C 654.6226 83.1837 662.3988 76.7361 662.3988 64.8024 L 662.3988 64.8024 Z" fill="#ffffff"/>
	<g>
		<path d="M 714.4091 83.5984 L 714.4091 75.5454 L 702.0253 75.5454 L 702.0253 53.8962 C 702.0253 48.5826 701.8335 46.8107 700.4895 44.246 C 698.0895 39.3535 693.5775 36.4994 687.7217 36.4994 L 686.3777 44.4503 C 692.1377 44.4503 693.8656 47.4993 693.8656 58.3244 L 693.8656 75.5454 L 673.514 75.5454 L 673.514 83.5984 C 705.0015 83.5984 714.4091 83.5984 714.4091 83.5984 L 714.4091 83.5984 Z" fill="#ffffff"/>
		<path d="M 752 83.5984 C 752 80.8821 752 75.5454 752 75.5454 C 752 55.7523 741.8676 39.0641 718.6078 39.0641 L 718.6078 46.6317 C 718.6078 46.6317 743.9233 45.2736 743.9233 75.5454 L 711.12 75.5454 L 711.12 83.5984 L 752 83.5984 L 752 83.5984 ZM 734.9275 100.7131 L 734.9275 92.3579 L 726.6718 92.3579 L 726.6718 100.7131 L 734.9275 100.7131 L 734.9275 100.7131 Z" fill="#ffffff"/>
	</g>
	<path d="M 635.7368 -9 L 635.7368 -9 ZM 637.2977 10.7529 C 637.5581 11.8499 637.6879 12.6731 637.6879 13.3593 C 637.6879 15.9658 635.7368 18.4352 631.7047 18.4352 C 629.4934 18.4352 627.672 16.9258 625.9813 13.7716 C 625.8513 18.2983 623.5096 21.1786 619.7377 21.1786 C 616.7461 21.1786 614.7948 19.3953 614.1445 15.9658 L 612.0632 5.4031 L 616.2256 4.443 L 618.177 13.7716 C 618.437 15.418 619.0875 16.2396 619.9978 16.2396 C 621.4288 16.2396 623.1196 14.8687 623.1196 12.1253 C 623.1196 11.713 622.9894 11.1652 622.8596 10.479 L 621.4288 3.3459 L 625.8513 2.2489 L 627.2821 9.5189 C 627.8022 12.2623 629.103 13.6332 631.3143 13.6332 C 632.485 13.6332 633.1353 12.9485 633.1353 11.713 C 633.1353 11.3022 633.1353 10.8898 633.0052 10.479 L 631.0542 1.1503 L 635.2166 0.3272 L 637.2977 10.7529 L 637.2977 10.7529 Z" fill="#ffffff"/>
	<use id="Symbol%201" xlink:href="#Symbol1" transform="matrix(1.7304, 0, 0, 1.7304, 338.5695, 53.1816)"/>
</svg>