<?xml version="1.0" standalone="no"?>
<!-- Generator: Adobe Fireworks 10, Export SVG Extension by Aaron Beall (http://fireworks.abeall.com) . Version: 0.6.1  -->
<!DOCTYPE svg PUBLIC "-//W3C//DTD SVG 1.1//EN" "http://www.w3.org/Graphics/SVG/1.1/DTD/svg11.dtd">
<svg id="Untitled-Page%201" viewBox="0 0 94 92" style="background-color:#ffffff00" version="1.1"
	xmlns="http://www.w3.org/2000/svg" xmlns:xlink="http://www.w3.org/1999/xlink" xml:space="preserve"
	x="0px" y="0px" width="94px" height="92px"
>
	<defs>
		<clipPath id="mask1">
			<path d="M 0.1372 0.054 L 0.1372 34.6783 C 0.1372 34.6783 2.3259 48.5287 20.0437 48.5287 C 20.0437 48.5287 41.97 51.4501 41.97 23.3174 L 41.97 0.054 L 0.1372 0.054 Z" fill="none"/>
		</clipPath>
	</defs>
	<g>
		<path d="M 88.3699 80.3398 C 88.3699 83.7458 85.5437 86.5077 82.0579 86.5077 C 78.5715 86.5077 75.7456 83.7458 75.7456 80.3398 C 75.7456 76.9339 78.5715 74.1725 82.0579 74.1725 C 85.5437 74.1725 88.3699 76.9339 88.3699 80.3398 ZM 55.2517 0 L 55.2517 23.7368 C 57.0581 22.1548 59.1375 21.5497 59.1375 21.5497 C 69.0322 19.5709 74.6001 34.5316 74.6001 34.5316 C 79.3499 47.2962 88.2192 50.4528 88.2192 50.4528 L 88.1825 57.5391 C 88.1489 63.7612 83.4415 63.8994 83.4415 63.8994 L 54.9266 63.7543 C 50.9412 63.6803 51.1318 69.3619 51.1318 69.3619 C 51.1019 74.9883 54.3688 75.0051 54.3688 75.0051 L 65.2764 75.0604 L 65.2262 84.5277 C 62.365 91.4382 52.2153 89.5204 52.2153 89.5204 C 37.7053 84.8208 38.868 69.2452 38.868 69.2452 C 38.9541 53.0967 53.8345 50.4941 53.8345 50.4941 C 56.1631 49.938 71.2786 50.1774 71.2786 50.1774 C 65.2336 46.5753 64.3438 42.189 64.3438 42.189 C 63.0444 36.5828 60.5596 35.3525 60.5596 35.3525 C 56.0045 32.7808 53.8195 36.8427 53.8195 36.8427 C 48.6698 66.8693 9.1359 57.9427 9.1359 57.9427 L 0 55.5075 L 0.1372 92 L 94 92 L 94 0 L 55.2517 0 Z" fill="#f8f8f8"/>
			<path d="M 0.1372 0.054 L 0.1372 34.6783 C 0.1372 34.6783 2.3259 48.5287 20.0437 48.5287 C 20.0437 48.5287 41.97 51.4501 41.97 23.3174 L 41.97 0.054 L 0.1372 0.054 Z" fill="none"/>
		<path clip-path="url(#mask1)" d="M 0.1372 0.054 L 41.97 0.054 L 41.97 51.4501 L 0.1372 51.4501 L 0.1372 0.054 Z" fill="#f8f8f8"/>
	</g>
</svg>